<?xml version="1.0" standalone="no"?>
<!DOCTYPE svg PUBLIC "-//W3C//DTD SVG 20010904//EN"
 "http://www.w3.org/TR/2001/REC-SVG-20010904/DTD/svg10.dtd">
<svg version="1.0" xmlns="http://www.w3.org/2000/svg"
 width="608.000000pt" height="608.000000pt" viewBox="0 0 608.000000 608.000000"
 preserveAspectRatio="xMidYMid meet">

<g transform="translate(0.000000,608.000000) scale(0.100000,-0.100000)"
fill="#000000" stroke="none">
<path d="M2835 6073 c-742 -47 -1440 -371 -1970 -914 -334 -343 -559 -711
-710 -1164 -88 -263 -127 -468 -146 -765 -14 -204 -6 -326 19 -333 15 -4 15
-5 0 -6 -20 -1 -22 -26 -12 -104 6 -40 12 -49 53 -76 25 -17 57 -40 71 -51 25
-20 25 -20 5 -36 -11 -8 -39 -20 -62 -27 -30 -8 -43 -16 -43 -29 0 -10 14 -85
30 -167 89 -439 297 -880 591 -1253 108 -136 378 -404 509 -505 439 -336 903
-533 1453 -615 115 -17 191 -21 402 -22 385 -1 631 37 968 148 980 323 1729
1126 1991 2136 65 251 89 457 89 755 0 334 -28 540 -118 854 -192 671 -646
1284 -1248 1682 -541 359 -1211 535 -1872 492z m-645 -957 c0 -3 -4 -8 -10
-11 -5 -3 -10 -1 -10 4 0 6 5 11 10 11 6 0 10 -2 10 -4z m210 -26 c0 -5 -5
-10 -11 -10 -5 0 -7 5 -4 10 3 6 8 10 11 10 2 0 4 -4 4 -10z m-224 -37 c-8
-19 4 -16 20 5 13 16 14 15 18 -20 2 -18 26 -22 26 -4 0 9 5 16 10 16 6 0 10
6 10 14 0 15 53 29 58 15 2 -5 8 -7 13 -3 5 3 22 -4 38 -15 18 -13 45 -21 70
-21 42 0 117 -15 161 -32 14 -6 39 -12 55 -15 41 -6 68 -38 88 -103 50 -163
80 -251 89 -257 8 -4 9 2 4 18 -3 13 -9 44 -12 69 -4 25 -12 52 -19 60 -15 20
-47 139 -40 151 4 5 18 -4 31 -21 14 -16 43 -34 64 -40 42 -11 133 -70 166
-106 12 -13 38 -31 58 -39 20 -9 57 -31 82 -50 56 -43 83 -46 34 -4 -19 16
-35 35 -35 42 0 11 -23 21 -75 31 -14 3 -36 16 -50 29 -14 13 -32 27 -40 30
-8 4 3 4 25 0 22 -3 49 -14 61 -24 11 -11 33 -19 47 -19 15 0 30 -7 33 -15 4
-8 16 -15 28 -15 12 0 31 -7 43 -15 45 -32 143 -75 170 -76 15 0 37 -4 48 -9
18 -7 19 -8 3 -15 -28 -11 -21 -25 11 -25 16 0 31 6 35 15 3 9 19 15 41 15 24
0 35 -4 35 -15 0 -8 4 -15 9 -15 13 0 19 -35 9 -54 -10 -18 -75 -50 -120 -60
-29 -7 -39 -26 -13 -26 17 0 110 24 147 38 40 16 80 1 90 -33 4 -16 6 -31 4
-33 -2 -1 -53 -5 -112 -7 -60 -2 -149 -8 -199 -12 -49 -3 -94 -6 -99 -4 -6 1
-19 -2 -30 -7 -12 -6 -29 -13 -38 -15 -22 -8 -45 -60 -52 -122 -7 -55 -33 -89
-68 -90 -30 0 -37 -42 -36 -220 1 -146 -8 -235 -23 -235 -5 0 -9 -8 -10 -17 0
-11 -3 -13 -6 -5 -2 6 -9 9 -14 6 -6 -3 -6 -11 2 -20 6 -7 15 -11 20 -9 5 3
14 -3 21 -14 8 -14 19 -18 37 -15 22 5 29 0 43 -28 10 -21 15 -48 12 -75 -2
-26 0 -43 6 -43 18 0 -9 -42 -57 -87 -29 -29 -52 -43 -70 -43 -35 0 -109 28
-148 55 -22 15 -48 22 -95 24 -67 3 -94 16 -105 52 -11 33 -25 10 -25 -39 0
-31 7 -55 20 -72 11 -14 20 -29 20 -35 2 -16 59 -57 70 -50 5 3 10 13 10 21 0
32 28 47 75 40 42 -7 59 -19 60 -40 0 -10 18 -21 60 -38 34 -12 168 -11 173 2
2 5 9 7 17 4 7 -3 16 -1 20 5 7 12 48 15 59 4 3 -4 15 -7 26 -8 16 -1 17 1 8
19 -11 20 -10 20 9 4 11 -10 27 -18 36 -18 23 0 21 -25 -5 -60 -24 -33 -38
-38 -38 -14 0 14 -3 14 -15 4 -8 -7 -15 -20 -15 -29 0 -14 2 -14 10 -1 10 16
12 15 27 -20 l11 -25 7 28 c7 27 24 37 26 15 0 -7 2 -34 5 -60 3 -40 1 -48
-13 -48 -9 0 -73 -3 -142 -6 -69 -4 -178 -5 -241 -4 -96 1 -132 -3 -215 -25
-55 -14 -120 -34 -145 -44 -25 -10 -57 -24 -72 -30 -40 -15 -35 -35 17 -72 25
-18 54 -47 65 -66 10 -18 26 -33 34 -33 7 0 16 -6 19 -14 3 -7 26 -23 51 -36
25 -12 48 -26 51 -30 3 -5 21 -6 40 -3 19 3 36 2 36 -3 1 -5 3 -19 4 -32 3
-32 7 -34 77 -41 119 -11 305 19 349 56 9 8 27 15 40 16 30 3 89 59 89 84 0
10 9 26 20 36 11 9 20 26 20 37 0 11 4 20 9 20 5 0 12 13 16 29 4 17 20 39 39
52 27 18 33 29 34 62 2 44 9 60 23 52 5 -4 9 -4 9 -1 0 2 3 11 6 20 4 12 0 16
-15 16 -14 0 -21 6 -21 18 0 27 -35 56 -60 49 -18 -4 -20 0 -20 34 0 39 0 39
-39 39 -36 0 -40 3 -43 27 -2 19 -10 29 -28 34 -16 5 -19 7 -7 8 10 1 22 12
27 25 5 13 14 26 21 28 16 5 14 56 -3 88 -30 56 -68 109 -85 119 -10 6 -14 11
-9 11 5 0 0 10 -12 23 -12 12 -25 40 -29 61 -5 22 -17 44 -28 50 -50 29 -70
65 -53 100 11 26 28 35 28 16 0 -5 7 -10 15 -10 11 0 14 7 9 25 -7 27 12 35
32 15 6 -6 19 -8 28 -4 24 9 13 73 -17 96 -33 26 -8 45 71 52 37 4 75 10 86
13 16 4 18 1 12 -21 -6 -25 -5 -26 34 -26 22 0 40 -3 40 -7 -1 -22 -22 -35
-64 -37 -50 -4 -75 -15 -35 -17 77 -3 100 -7 114 -19 12 -10 15 -10 15 3 0 16
40 27 101 27 27 0 39 4 39 14 0 9 11 13 33 12 26 -2 32 -6 31 -24 0 -14 5 -22
16 -22 23 0 50 -32 33 -37 -17 -6 -17 -23 0 -23 20 0 67 -60 67 -85 0 -13 -7
-25 -15 -29 -21 -7 -19 -43 3 -55 16 -10 16 -10 -2 -11 -16 0 -17 -5 -11 -37
4 -21 11 -39 16 -41 16 -6 10 -19 -12 -25 -17 -5 -19 -10 -13 -29 11 -35 6
-89 -13 -124 -10 -20 -13 -38 -8 -50 5 -11 9 -32 10 -49 0 -16 2 -51 3 -77 1
-34 6 -48 16 -48 8 0 17 8 19 18 3 9 5 2 6 -15 1 -23 -3 -33 -14 -33 -13 0
-14 -10 -9 -65 l7 -65 -32 0 c-20 0 -31 -5 -31 -14 0 -9 7 -12 20 -9 14 4 20
0 20 -12 0 -9 -9 -19 -21 -22 -11 -3 -18 -11 -15 -19 3 -8 0 -11 -8 -8 -16 6
-36 -37 -36 -76 0 -33 -14 -39 -29 -12 -10 16 -10 16 -11 -1 0 -10 -4 -16 -9
-13 -14 9 -32 -20 -25 -39 6 -14 3 -16 -14 -11 -18 6 -24 1 -37 -31 -9 -21
-18 -51 -19 -68 -5 -45 -5 -47 -17 -39 -8 4 -8 1 -1 -12 18 -35 1 -95 -27 -93
-10 0 -11 2 -3 6 17 7 15 33 -3 33 -8 0 -20 9 -27 20 -12 18 -13 17 -23 -13
-7 -22 -7 -34 0 -39 5 -4 0 -8 -12 -8 -13 0 -23 -5 -23 -11 0 -6 9 -8 20 -4
13 4 20 2 20 -7 0 -22 -17 -41 -29 -34 -14 9 -10 -16 4 -26 6 -5 5 -8 -2 -8
-7 0 -13 -7 -13 -15 0 -8 -7 -16 -15 -16 -29 -3 -33 -4 -42 -12 -4 -5 1 -15
12 -24 20 -15 20 -15 -2 -8 -18 5 -24 1 -29 -19 -3 -14 -11 -26 -18 -26 -12 0
-66 -57 -66 -69 0 -17 -37 -39 -75 -46 -22 -4 -93 -9 -157 -11 -65 -1 -126 -7
-136 -13 -18 -9 -47 -7 -82 7 -8 3 -39 6 -68 6 -40 1 -56 6 -63 19 -6 9 -16
17 -24 17 -8 0 -23 10 -34 21 -12 14 -26 19 -37 15 -12 -4 -15 -2 -10 9 4 10
-1 15 -14 15 -11 0 -20 4 -20 8 0 4 -13 13 -30 19 -16 6 -30 18 -30 27 0 9 -4
16 -10 16 -5 0 -10 7 -10 15 0 8 -7 15 -15 15 -8 0 -15 7 -15 15 0 8 -4 15
-10 15 -5 0 -10 7 -10 15 0 8 -4 15 -9 15 -5 0 -12 11 -15 25 -4 15 -16 27
-31 31 -14 3 -25 11 -25 16 0 6 -9 8 -19 5 -14 -3 -21 2 -25 19 -4 13 -12 24
-18 24 -19 0 -57 41 -51 56 3 9 0 12 -9 9 -9 -4 -22 5 -33 22 -10 15 -24 34
-31 40 -7 7 -27 35 -45 63 -18 27 -35 50 -38 50 -3 0 -19 26 -36 58 -16 31
-33 59 -37 60 -5 2 -8 13 -8 25 0 12 -11 35 -24 50 -14 16 -32 54 -41 85 -9
31 -21 72 -27 91 -14 46 -16 112 -6 206 5 44 9 87 9 95 -9 189 -9 416 0 427
14 16 4 43 -16 43 -8 0 -15 3 -15 6 0 8 32 39 42 40 4 1 10 2 13 3 3 0 1 10
-5 22 -9 15 -8 24 0 35 7 7 10 22 7 33 -2 10 -1 24 3 31 10 15 78 -31 103 -71
11 -16 25 -29 32 -29 7 0 23 -9 37 -19 13 -11 37 -23 53 -27 25 -6 26 -8 12
-19 -24 -17 -21 -23 11 -27 15 -2 32 3 39 12 9 12 33 15 117 13 85 -2 106 0
106 11 0 9 7 12 20 9 11 -3 17 -10 13 -16 -3 -5 -6 -22 -7 -36 -1 -21 -7 -27
-30 -29 -16 -2 -32 2 -37 10 -7 10 -9 9 -9 -4 0 -9 -5 -18 -12 -20 -6 -2 -9
-8 -6 -14 13 -21 199 -2 219 22 6 8 18 14 26 14 11 0 14 7 11 23 -5 28 10 44
48 49 24 2 30 8 34 36 l5 34 27 -21 c37 -30 44 -27 58 23 11 41 10 47 -10 76
-13 18 -19 35 -14 39 5 3 9 33 10 66 0 33 4 76 8 96 8 35 7 37 -25 43 -19 4
-56 7 -82 6 -27 -1 -54 3 -60 9 -8 6 -96 8 -227 6 -210 -3 -290 -13 -348 -44
-19 -10 -21 -6 -32 62 -6 39 -16 82 -21 95 -14 36 -11 48 15 60 13 6 27 20 31
32 4 12 14 19 23 18 11 -2 17 4 17 17 0 11 -5 20 -12 20 -6 0 -14 3 -17 6 -10
9 -14 149 -5 155 5 3 4 17 -2 31 -7 19 -6 28 2 34 8 4 4 9 -10 14 -20 6 -30
35 -12 35 5 0 7 9 4 20 -7 27 2 25 35 -5 34 -32 49 -31 79 1 29 32 25 49 -15
57 -22 5 -28 11 -27 28 2 26 34 41 53 26 7 -6 11 -16 8 -24z m289 17 c13 -6
15 -9 5 -9 -8 0 -22 4 -30 9 -18 12 -2 12 25 0z m-325 -80 c0 -5 -7 -10 -15
-10 -8 0 -15 5 -15 10 0 6 7 10 15 10 8 0 15 -4 15 -10z m-140 -520 c0 -5 -2
-10 -4 -10 -3 0 -8 5 -11 10 -3 6 -1 10 4 10 6 0 11 -4 11 -10z m452 -244 c14
-4 28 -16 31 -27 5 -17 -1 -19 -66 -21 -40 -1 -96 -1 -124 0 -40 2 -53 0 -53
-11 0 -16 -52 -21 -112 -11 -45 7 -49 21 -10 30 15 3 43 12 64 21 20 8 40 13
45 10 4 -3 19 1 33 8 26 14 141 14 192 1z m1134 -9 c4 -4 -7 -7 -25 -7 -18 0
-30 -4 -26 -9 3 -6 -3 -9 -12 -9 -10 1 -33 -2 -50 -6 -19 -4 -33 -4 -33 1 0
27 124 52 146 30z m-1898 -70 c18 -38 8 -45 -33 -23 -22 12 -33 25 -32 38 2
30 49 20 65 -15z m906 -60 c24 -18 17 -51 -12 -55 -20 -3 -22 0 -20 32 2 40 6
42 32 23z m741 -8 c9 -27 3 -31 -36 -27 l-34 3 25 23 c30 27 37 28 45 1z
m-1631 -23 c23 -20 26 -32 26 -85 0 -34 5 -95 12 -134 9 -59 17 -79 46 -111
28 -32 33 -43 26 -65 -4 -14 -7 -68 -6 -118 1 -83 -1 -93 -17 -93 -21 0 -64
36 -78 65 -6 11 -14 42 -18 69 -4 27 -13 59 -21 71 -8 12 -14 35 -12 51 1 16
-5 52 -14 79 -28 85 -58 250 -50 277 7 28 74 25 106 -6z m1880 -55 c3 -5 -9
-18 -28 -29 -30 -18 -35 -18 -40 -5 -8 20 -7 25 3 19 5 -3 14 1 21 9 14 17 36
20 44 6z m-354 -1057 c0 -27 -22 -46 -56 -48 -15 0 -43 -16 -63 -34 l-36 -34
-110 5 c-125 4 -188 22 -193 52 -7 45 -12 51 -27 32 -15 -21 -50 -19 -50 3 0
9 12 16 30 18 17 2 35 8 40 12 6 5 73 9 149 9 77 1 142 3 144 6 2 2 42 3 88 2
79 -2 84 -3 84 -23z m447 -136 c-3 -8 -6 -5 -6 6 -1 11 2 17 5 13 3 -3 4 -12
1 -19z m-3344 -170 c-9 -17 -133 -4 -133 13 0 4 18 13 39 19 24 6 42 18 46 29
3 11 12 22 20 25 9 3 16 20 17 43 0 21 4 2 8 -42 4 -44 5 -83 3 -87z m1651
147 c3 -8 10 -14 15 -13 16 5 263 -244 251 -252 -7 -5 0 -12 19 -18 17 -6 31
-15 31 -19 0 -5 26 -25 58 -46 31 -20 80 -59 107 -88 66 -68 181 -143 252
-164 100 -30 142 -49 154 -72 8 -15 24 -23 58 -27 91 -11 226 -34 204 -35 -13
0 -23 -6 -23 -12 0 -7 13 -9 38 -5 56 10 173 12 179 4 2 -5 -3 -8 -11 -8 -9 0
-16 -4 -16 -10 0 -5 8 -10 18 -10 14 0 15 -2 2 -10 -10 -6 -11 -10 -2 -10 19
0 14 -48 -7 -69 -11 -11 -37 -24 -58 -28 -66 -14 -470 -9 -558 6 -200 36 -519
183 -648 300 -52 46 -62 55 -107 95 -147 129 -240 221 -240 237 0 9 -6 20 -12
22 -7 3 1 6 17 6 23 1 27 4 15 11 -12 8 -9 10 12 10 20 0 32 8 43 30 11 21 23
30 40 30 14 0 25 6 25 13 0 6 10 -4 22 -23 12 -19 25 -37 29 -40 3 -3 18 -29
33 -57 14 -29 30 -53 35 -53 11 0 -9 72 -22 81 -5 4 -1 21 8 38 12 25 15 49
11 102 -5 68 -1 99 14 99 4 0 10 -7 14 -15z m1010 -23 c4 -2 4 -7 -2 -11 -15
-9 -112 0 -112 10 0 10 97 11 114 1z"/>
<path d="M3280 4610 c0 -8 24 -20 41 -20 6 0 8 4 5 9 -8 12 -46 21 -46 11z"/>
<path d="M2850 4577 c0 -10 41 -134 54 -162 40 -90 58 -122 77 -133 27 -17 39
-6 13 13 -11 7 -29 33 -39 57 -11 24 -22 45 -25 48 -3 3 -12 25 -19 50 -18 60
-43 120 -53 126 -4 3 -8 3 -8 1z"/>
<path d="M3565 4570 c-3 -5 1 -10 10 -10 9 0 13 5 10 10 -3 6 -8 10 -10 10 -2
0 -7 -4 -10 -10z"/>
<path d="M3405 3970 c-3 -5 -1 -10 4 -10 6 0 11 5 11 10 0 6 -2 10 -4 10 -3 0
-8 -4 -11 -10z"/>
<path d="M2237 3957 c-3 -8 1 -13 11 -12 21 1 28 19 9 23 -8 2 -17 -3 -20 -11z"/>
<path d="M2348 3913 c7 -3 16 -2 19 1 4 3 -2 6 -13 5 -11 0 -14 -3 -6 -6z"/>
<path d="M2782 3660 c-28 -26 -28 -38 1 -49 24 -9 35 5 36 47 1 27 -9 28 -37
2z"/>
<path d="M2676 3574 c-10 -27 -7 -54 8 -54 8 0 17 6 20 13 5 10 7 10 12 0 9
-20 48 -15 62 8 12 18 11 24 -2 37 -13 13 -17 13 -32 1 -13 -11 -18 -11 -21
-1 -6 17 -40 15 -47 -4z"/>
<path d="M2500 3390 c0 -5 5 -10 10 -10 6 0 10 5 10 10 0 6 -4 10 -10 10 -5 0
-10 -4 -10 -10z"/>
<path d="M3395 3370 c-3 -5 -1 -10 4 -10 6 0 11 5 11 10 0 6 -2 10 -4 10 -3 0
-8 -4 -11 -10z"/>
<path d="M3360 3345 c0 -8 2 -15 4 -15 2 0 6 7 10 15 3 8 1 15 -4 15 -6 0 -10
-7 -10 -15z"/>
<path d="M2458 3313 c-45 -49 -61 -93 -33 -93 8 0 18 12 21 26 4 15 15 35 25
45 16 16 26 49 16 49 -2 0 -15 -12 -29 -27z"/>
<path d="M2390 3198 c0 -23 3 -29 9 -19 8 12 4 51 -5 51 -2 0 -4 -15 -4 -32z"/>
<path d="M3575 3130 c-3 -5 1 -10 10 -10 9 0 13 5 10 10 -3 6 -8 10 -10 10 -2
0 -7 -4 -10 -10z"/>
<path d="M1655 4140 c3 -5 11 -10 16 -10 6 0 7 5 4 10 -3 6 -11 10 -16 10 -6
0 -7 -4 -4 -10z"/>
<path d="M3155 2000 c3 -5 8 -10 11 -10 2 0 4 5 4 10 0 6 -5 10 -11 10 -5 0
-7 -4 -4 -10z"/>
</g>
</svg>
